<svg width="100" height="100" viewBox="0 0 100 100" fill="none" xmlns="http://www.w3.org/2000/svg">
<circle cx="50" cy="50" r="49.5" fill="#7F1D1D" stroke="#ECFEFF"/>
<path d="M35.0226 28.8459C28.8785 29.1926 22.2943 33.9734 18.6576 35.2552C15.021 36.5371 11.8146 44.7427 15.9301 48.074C19.4559 50.928 20.4986 55.263 23.2035 56.6199C28.5328 59.2934 34.1761 55.7763 40.9322 58.3291C47.9746 60.9901 52.4346 54.8742 60.0247 54.9107C65.2216 54.9358 68.0547 57.2552 73.2076 56.6199C78.8015 55.9303 88.3294 53.1904 86.845 48.074C85.4813 43.3736 88.2088 38.6736 85.4813 35.2552C80.4883 28.9976 75.869 30.7414 68.6617 28.8459C62.5524 27.2391 60.4792 25 54.5696 25C45.1441 25.0001 41.1667 28.4991 35.0226 28.8459Z" stroke="#ECFEFF" stroke-linecap="round"/>
<path d="M64.1276 69.0612L71.5939 62.8387C72.4128 62.1562 73.5888 63.0579 73.142 64.0259L70.7159 69.2831C70.5427 69.6583 70.6182 70.1013 70.9058 70.398L72.4351 71.9761C72.8349 72.3886 72.8058 73.0523 72.3714 73.4282L64.6419 80.1174C63.7598 80.8808 62.5071 79.7728 63.1571 78.8041L66.6778 73.5567C66.983 73.1018 66.8655 72.4861 66.4142 72.1756L64.2011 70.6532C63.6553 70.2779 63.6188 69.4852 64.1276 69.0612Z" stroke="#ECFEFF" stroke-linecap="round"/>
<path d="M39.2155 66V67.5" stroke="#ECFEFF" stroke-linecap="round"/>
<path d="M45.2285 67V68.5" stroke="#ECFEFF" stroke-linecap="round"/>
<path d="M53.6465 66V67.5" stroke="#ECFEFF" stroke-linecap="round"/>
<path d="M59 64V65.5" stroke="#ECFEFF" stroke-linecap="round"/>
<path d="M35.6078 71V72.5" stroke="#ECFEFF" stroke-linecap="round"/>
<path d="M41.6207 73V74.5" stroke="#ECFEFF" stroke-linecap="round"/>
<path d="M48.8362 72V73.5" stroke="#ECFEFF" stroke-linecap="round"/>
<path d="M56.0517 72V73.5" stroke="#ECFEFF" stroke-linecap="round"/>
<path d="M32 66V67.5" stroke="#ECFEFF" stroke-linecap="round"/>
<path d="M52.444 78V79.5" stroke="#ECFEFF" stroke-linecap="round"/>
<path d="M46.431 77V78.5" stroke="#ECFEFF" stroke-linecap="round"/>
<path d="M22.5 39L20 45.5" stroke="#ECFEFF" stroke-width="0.5" stroke-linecap="round"/>
<path d="M31 34L24 52" stroke="#ECFEFF" stroke-width="0.5" stroke-linecap="round"/>
<path d="M39 32L30.5 53.5" stroke="#ECFEFF" stroke-width="0.5" stroke-linecap="round"/>
<path d="M48 30L38.5 53.5" stroke="#ECFEFF" stroke-width="0.5" stroke-linecap="round"/>
<path d="M56 30L45.5 54.5" stroke="#ECFEFF" stroke-width="0.5" stroke-linecap="round"/>
<path d="M63 31L54.5 52" stroke="#ECFEFF" stroke-width="0.5" stroke-linecap="round"/>
<path d="M69.5 33L62.5 50.5" stroke="#ECFEFF" stroke-width="0.5" stroke-linecap="round"/>
<path d="M76 34L69.5 51.5" stroke="#ECFEFF" stroke-width="0.5" stroke-linecap="round"/>
<path d="M81 37L76 51.5" stroke="#ECFEFF" stroke-width="0.5" stroke-linecap="round"/>
<path d="M83 46.5L81.5 50" stroke="#ECFEFF" stroke-width="0.5" stroke-linecap="round"/>
</svg>
