<svg width="176" height="228" viewBox="0 0 176 228" fill="none" xmlns="http://www.w3.org/2000/svg">
<path d="M67.5 150.5C67.5 150.5 64.9678 162.488 69.5 162C71.5999 161.774 71.3177 159.94 73.3293 159.296C77.391 157.997 77.5651 163.728 83.8293 162.296C89.5 161 87.5315 157.05 91.5 156.5C94.5581 156.076 96.6072 158.579 99.5 157.5C102.45 156.4 103.408 153.647 103.5 150.5C103.597 147.182 99.5 143 99.5 143" stroke="#ECFEFF"/>
<path d="M65.5 154.5C65.5 154.5 57.5 170 55 175.5C51.981 182.142 67.5 196.5 67.5 196.5" stroke="#ECFEFF"/>
<path d="M104.5 144C104.5 144 121.474 151.376 126.5 161C130.952 169.525 129 185.5 129 185.5" stroke="#ECFEFF"/>
<path d="M65 183.5C65 183.5 83.2336 184.029 94.5 181.5C105.539 179.022 121.5 171 121.5 171" stroke="#ECFEFF"/>
<path d="M61 112.5C62.5015 112.939 23.3955 113.075 20.5 127.5C18.3572 138.175 23.2544 156.312 35 160.5C51.6372 166.433 61.5675 157.72 65.5 149.5C69.5658 141.001 70.3451 131.157 69 122.5M61 112.5C61 112.5 65.29 117.228 69 122.5M61 112.5L86.5 105.5M69 122.5C73.6863 120.352 75.5 119 81 119M86.5 105.5C89.7473 103.831 115 97 122.5 99C130 101 133 105.5 133 105.5M86.5 105.5C82.5909 107.493 80.083 115.5 81 119M133 105.5C132.648 105.944 141.279 124.465 136.5 133.5C130.492 144.858 114.649 146.846 105 143C93.4568 138.399 84.1494 131.021 81 119M133 105.5L150.5 93" stroke="#ECFEFF"/>
<path d="M130 18L114 38.5M130 18C133.88 22.7948 108.964 -3.02878 82.4999 0.999989C43.3827 6.95495 16.2139 33.3142 6.49989 49.5C-2.34044 64.23 1.29242 81.0594 2.9999 97.5C4.55514 112.475 19.4999 134.5 19.4999 134.5C24.4999 117 16.1219 97.3381 24.4999 68.5C54.3159 48.1076 75.3365 43.9457 114 38.5M130 18C130 18 162 36.5 167 54.5C172 72.5 173.503 73.9977 171.5 86C169.949 95.2968 164.5 123 156 104.5M114 38.5C133.619 78.3564 147.5 86 156 104.5M156 104.5C156 104.5 162 111.909 162 117.5C162 122.5 161.646 140.728 165.5 154C167.033 159.281 165.5 164.5 165.5 164.5C159.262 194.158 153 206.5 142.5 217M35.5 161C35.5 161 37.8778 174.571 41.5 182.5C49.3036 199.582 59.3062 206.686 75 217C80.7691 220.792 83.8039 223.82 90.5 225.5C103.225 228.692 112.682 225.102 123 217C133.443 208.8 139 187 139 187" stroke="#ECFEFF"/>
<path d="M171 82.5C179 86 173.698 99.3276 172.5 110C171.769 116.508 169.5 126.5 169.5 126.5C169.181 133.992 167.924 138.039 164 145" stroke="#ECFEFF"/>
</svg>
