<svg width="100" height="100" viewBox="0 0 100 100" fill="none" xmlns="http://www.w3.org/2000/svg">
<circle cx="50" cy="50" r="49.5" fill="#78350F" stroke="#ECFEFF"/>
<path d="M23 38.5774C23 38.5774 26.2741 33.8839 29.5 33.0774C33.5 32.0774 34 23.0773 39.5 24.0774C44.3487 24.9591 45.4243 29.2471 50 31.0774C55 33.0774 51.8213 42.2202 55 48.5774C57.5 53.5774 55 59.5774 58.5 62.0774C60.8621 63.7646 60.0806 65.9735 62.5 67.5774C65.0733 69.2833 68 69.0774 70 71.5774C71.7337 73.7445 71 75.5774 74.5 75.5774C76.5 75.5774 77.5 75.5774 77.5 75.5774" stroke="#ECFEFF" stroke-linecap="round"/>
</svg>
