<svg width="299" height="302" viewBox="0 0 299 302" fill="none" xmlns="http://www.w3.org/2000/svg">
<path d="M135 86.4999L127.5 87.9998L146 97L155 98M135 86.4999L149 83.9998L155 84.9998M135 86.4999C135 86.4999 156.094 67.2089 173 59.5C188.932 52.2351 200.373 50.3538 217.5 54C235.254 57.7797 245.872 59.6898 261.5 71.5C278.742 84.53 297.5 111.664 297.5 111.664L270 152C270 152 227.13 127.425 197 119C177.523 113.554 146 110 146 110C146 110 143.715 107.499 143.5 105.5C142.975 100.614 155 98 155 98M155 98L228 111.664L275.5 119L278 105.5L199.5 92.9999M155 84.9998C155 84.9998 167.882 80.4186 176.5 79.4999C185.44 78.5468 194 77.4999 199.5 80.4999C205.923 84.0033 199.11 94.3081 199.5 92.9999M155 84.9998L199.5 92.9999" stroke="#ECFEFF"/>
<path d="M180.5 57.1946L151.5 1.5C151.5 1.5 69.8989 33.2172 18 54.5C11.3572 57.2241 1 61.5 1 61.5L114 300.5L271 231L217.108 127.5M64 115.5C73.7984 109.397 82.5 102 99.5 98.0599C116.5 94.1198 126.553 88.0672 127.5 89M47.5 84C47.5 84 59 82.6622 69.5 75.0811C80 67.5 103.24 65.3891 113.62 57.1946C124 49 140 46.5 140 46.5" stroke="#ECFEFF"/>
</svg>
